<?xml version="1.0" encoding="UTF-8" standalone="no"?>
<svg
   xmlns:dc="http://purl.org/dc/elements/1.1/"
   xmlns:cc="http://creativecommons.org/ns#"
   xmlns:rdf="http://www.w3.org/1999/02/22-rdf-syntax-ns#"
   xmlns:svg="http://www.w3.org/2000/svg"
   xmlns="http://www.w3.org/2000/svg"
   viewBox="0 0 511.74667 89.760002"
   height="89.760002"
   width="511.74667"
   xml:space="preserve"
   id="svg2"
   version="1.1"><metadata
     id="metadata8"><rdf:RDF><cc:Work
         rdf:about=""><dc:format>image/svg+xml</dc:format><dc:type
           rdf:resource="http://purl.org/dc/dcmitype/StillImage" /></cc:Work></rdf:RDF></metadata><defs
     id="defs6" /><g
     transform="matrix(1.3333333,0,0,-1.3333333,0,89.76)"
     id="g10"><g
       transform="scale(0.1)"
       id="g12"><path
         id="path14"
         style="fill:#0f0708;fill-opacity:1;fill-rule:nonzero;stroke:none"
         d="M 1083.59,468.629 H 937.754 V 305.918 h -51 V 666.91 H 1099.95 V 618.789 H 937.754 V 516.746 h 145.836 v -48.117" /><path
         id="path16"
         style="fill:#0f0708;fill-opacity:1;fill-rule:nonzero;stroke:none"
         d="m 1509.24,354.039 h 71.71 c 56.8,0 67.88,28.918 67.88,56.82 0,39.938 -17.82,57.77 -66.92,57.77 h -72.67 z m 68.83,264.75 h -68.83 V 516.746 h 72.67 c 44.28,0 55.36,25.981 55.36,51.02 0,25.472 -8.67,51.023 -59.2,51.023 z m -119.83,48.121 h 117.91 c 86.63,0 115.5,-44.754 115.5,-99.144 0,-26.961 -12.02,-54.391 -35.13,-71.711 32.24,-15.91 46.68,-50.078 46.68,-85.196 0,-58.23 -31.76,-104.941 -124.17,-104.941 H 1458.24 V 666.91" /><path
         id="path18"
         style="fill:#0f0708;fill-opacity:1;fill-rule:nonzero;stroke:none"
         d="m 1951.86,468.629 h -150.63 v -114.59 h 166.5 V 305.918 H 1750.69 V 666.91 h 217.04 v -48.121 h -166.5 V 516.746 h 150.63 v -48.117" /><path
         id="path20"
         style="fill:#0f0708;fill-opacity:1;fill-rule:nonzero;stroke:none"
         d="m 2093.01,504.203 h 72.67 c 52.94,0 60.64,25.551 60.64,57.766 0,31.269 -7.7,56.82 -60.64,56.82 h -72.67 z m 0,-198.285 h -50.53 V 666.91 h 116.47 c 92.88,0 121.75,-40.441 121.75,-104.941 0,-47.184 -14.91,-81.356 -59.67,-97.188 26.46,-50.082 58.71,-109.719 84.22,-158.863 h -62.57 l -73.63,150.164 h -76.04 V 305.918" /><path
         id="path22"
         style="fill:#0f0708;fill-opacity:1;fill-rule:nonzero;stroke:none"
         d="m 2594,305.918 -167.96,261.867 0.98,-261.867 h -49.1 V 666.93 h 39.97 l 167.96,-261.871 -0.94,261.871 h 49.06 V 305.918 H 2594" /><path
         id="path24"
         style="fill:#0f0708;fill-opacity:1;fill-rule:nonzero;stroke:none"
         d="m 2818.62,625.039 c -74.61,0 -85.16,-63.996 -85.16,-138.605 0,-74.629 10.55,-138.661 85.16,-138.661 74.61,0 85.19,64.032 85.19,138.661 0,74.609 -10.58,138.605 -85.19,138.605 z m 0,-325.394 c -120.78,0 -137.16,92.41 -137.16,186.789 0,94.324 16.38,186.726 137.16,186.726 121.24,0 137.16,-92.402 137.16,-186.726 0,-94.379 -15.92,-186.789 -137.16,-186.789" /><path
         id="path26"
         style="fill:#0f0708;fill-opacity:1;fill-rule:nonzero;stroke:none"
         d="M 3539.11,468.641 H 3388.48 V 354.039 h 166.47 V 305.918 H 3337.93 V 666.93 h 217.02 V 618.809 H 3388.48 V 516.762 h 150.63 v -48.121" /><path
         id="path28"
         style="fill:#0f0708;fill-opacity:1;fill-rule:nonzero;stroke:none"
         d="m 3680.26,354.039 h 157.85 v -48.121 h -208.4 V 666.93 h 50.55 V 354.039" /><path
         id="path30"
         style="fill:#0f0708;fill-opacity:1;fill-rule:nonzero;stroke:none"
         d="m 1229.68,668.164 h 54.35 l 126.26,-362.246 h -54.59 l -126.02,362.246" /><path
         id="path32"
         style="fill:#0f0708;fill-opacity:1;fill-rule:nonzero;stroke:none"
         d="m 3163.7,305.996 h -54.39 l -126.27,362.227 h 54.64 L 3163.7,305.996" /><path
         id="path34"
         style="fill:#0f0708;fill-opacity:1;fill-rule:nonzero;stroke:none"
         d="m 3163.94,305.996 h -54.63 l 126.26,362.227 h 54.4 L 3163.94,305.996" /><path
         id="path36"
         style="fill:#0f0708;fill-opacity:1;fill-rule:nonzero;stroke:none"
         d="M 100.242,3.52734 H 0 L 231.691,668.223 h 99.817 L 100.242,3.52734" /><path
         id="path38"
         style="fill:#0f0708;fill-opacity:1;fill-rule:nonzero;stroke:none"
         d="M 448.852,3.52734 H 348.609 L 580.301,668.223 h 99.816 L 448.852,3.52734" /><path
         id="path40"
         style="fill:#0f0708;fill-opacity:1;fill-rule:nonzero;stroke:none"
         d="M 1229.2,668.164 1103.18,305.918 h 54.35 l 126.26,362.246 h -54.59" /><path
         id="path42"
         style="fill:#53da3f;fill-opacity:1;fill-rule:nonzero;stroke:none"
         d="m 2582.94,3.54297 h 28.5195 v 203.719 H 2582.94 Z" /><path
         id="path44"
         style="fill:#53da3f;fill-opacity:1;fill-rule:nonzero;stroke:none"
         d="m 2785.54,3.54297 -94.8,147.76603 0.54,-147.76603 h -27.71 V 207.262 h 22.56 l 94.8,-147.762 -0.54,147.762 h 27.7 V 3.54297 h -22.55" /><path
         id="path46"
         style="fill:#53da3f;fill-opacity:1;fill-rule:nonzero;stroke:none"
         d="M 2976.15,3.54297 2881.35,151.309 2881.9,3.54297 h -27.72 V 207.262 h 22.56 L 2971.54,59.5 2971,207.262 h 27.7 V 3.54297 h -22.55" /><path
         id="path48"
         style="fill:#53da3f;fill-opacity:1;fill-rule:nonzero;stroke:none"
         d="m 3118.14,183.637 c -42.1,0 -48.08,-36.129 -48.08,-78.223 0,-42.1132 5.98,-78.2421 48.08,-78.2421 42.11,0 48.08,36.1289 48.08,78.2421 0,42.094 -5.97,78.223 -48.08,78.223 z M 3118.14,0 c -68.18,0 -77.41,52.1562 -77.41,105.414 0,53.238 9.23,105.395 77.41,105.395 68.45,0 77.42,-52.157 77.42,-105.395 C 3195.56,52.1562 3186.59,0 3118.14,0" /><path
         id="path50"
         style="fill:#53da3f;fill-opacity:1;fill-rule:nonzero;stroke:none"
         d="m 3353.03,207.262 h 31.24 L 3312.01,0 h -19.82 l -72.26,207.262 h 31.23 l 51.08,-159.4378 50.79,159.4378" /><path
         id="path52"
         style="fill:#53da3f;fill-opacity:1;fill-rule:nonzero;stroke:none"
         d="m 3463.77,163.809 -25.54,-79.8559 h 50.52 z M 3381.46,3.54297 3453.72,210.809 h 19.82 L 3545.8,3.54297 h -31.24 L 3497.18,57.5898 H 3429.8 L 3412.69,3.54297 h -31.23" /><path
         id="path54"
         style="fill:#53da3f;fill-opacity:1;fill-rule:nonzero;stroke:none"
         d="M 3624.45,180.113 V 3.54297 h -28.52 V 180.113 h -53.79 v 27.149 h 136.09 v -27.149 h -53.78" /><path
         id="path56"
         style="fill:#53da3f;fill-opacity:1;fill-rule:nonzero;stroke:none"
         d="m 3826.21,95.3516 h -85.02 V 30.6953 h 93.98 V 3.54297 H 3712.66 V 207.262 h 122.51 v -27.149 h -93.98 v -57.59 h 85.02 V 95.3516" /></g></g></svg>