<?xml version="1.0" encoding="UTF-8" standalone="no"?>
<svg
   xmlns:dc="http://purl.org/dc/elements/1.1/"
   xmlns:cc="http://creativecommons.org/ns#"
   xmlns:rdf="http://www.w3.org/1999/02/22-rdf-syntax-ns#"
   xmlns:svg="http://www.w3.org/2000/svg"
   xmlns="http://www.w3.org/2000/svg"
   viewBox="0 0 164.86667 69.386665"
   height="69.386665"
   width="164.86667"
   xml:space="preserve"
   id="svg2"
   version="1.1"><metadata
     id="metadata8"><rdf:RDF><cc:Work
         rdf:about=""><dc:format>image/svg+xml</dc:format><dc:type
           rdf:resource="http://purl.org/dc/dcmitype/StillImage" /></cc:Work></rdf:RDF></metadata><defs
     id="defs6" /><g
     transform="matrix(1.3333333,0,0,-1.3333333,0,69.386667)"
     id="g10"><g
       transform="scale(0.1)"
       id="g12"><path
         id="path14"
         style="fill:#231f20;fill-opacity:1;fill-rule:nonzero;stroke:none"
         d="m 913.254,245.488 26.582,48.758 26.531,-48.758 z m 54.391,81.942 H 914.434 L 838.645,192.891 h 47.195 l 12.578,23.379 h 82.754 l 12.656,-23.379 h 49.582 z M 787.852,192.891 h 42.851 V 327.43 H 787.852 Z M 598.691,327.43 V 192.891 h 42.786 V 327.43 Z m 171.465,0 h -56.383 l -72.296,-64.395 78.066,-70.144 H 780.02 L 694.004,264.52 Z M 543.375,239.863 c 0,-7.859 -0.855,-10.273 -3.016,-12.14 -2.175,-1.922 -5.562,-2.45 -14.906,-2.45 H 458.98 c -9.363,0 -12.64,0.528 -14.949,2.45 -2.023,1.867 -2.937,4.281 -2.937,12.14 v 41.063 c 0,7.953 0.914,10.265 2.937,12.109 2.309,2.012 5.586,2.512 14.949,2.512 h 66.473 c 9.344,0 12.731,-0.5 14.906,-2.512 2.161,-1.844 3.016,-4.156 3.016,-12.109 z m -16.172,89.793 h -69.945 c -24.399,0 -37,-2.801 -45.703,-12.019 -5.578,-6.184 -9.098,-12.629 -9.098,-31.309 v -51.863 c 0,-18.695 3.52,-25.141 9.098,-31.313 8.703,-9.273 21.304,-12.05 45.703,-12.05 h 69.945 c 24.262,0 36.996,2.777 45.719,12.05 5.578,6.172 9.043,12.618 9.043,31.313 v 51.863 c 0,18.68 -3.465,25.125 -9.043,31.309 -8.723,9.218 -21.457,12.019 -45.719,12.019 z M 345.059,227.004 263.824,327.43 H 193.02 V 192.891 h 40.902 v 102.156 l 82.703,-102.156 h 69.391 V 327.43 H 345.059 V 227.004" /></g></g></svg>