<?xml version="1.0" encoding="UTF-8" standalone="no"?>
<svg width="127px" height="85px" viewBox="0 0 127 85" version="1.1" xmlns="http://www.w3.org/2000/svg" xmlns:xlink="http://www.w3.org/1999/xlink">
    <!-- Generator: Sketch 39.1 (31720) - http://www.bohemiancoding.com/sketch -->
    <title>CD-logo-vertical-RGB</title>
    <desc>Created with Sketch.</desc>
    <defs></defs>
    <g id="Page-1" stroke="none" stroke-width="1" fill="none" fill-rule="evenodd">
        <path d="M126.731,0.402 C126.731,23.723 107.826,42.629 84.504,42.629 L84.504,0.402 L126.731,0.402" id="Fill-1" fill="#E36736"></path>
        <path d="M0.05,0.402 C23.371,0.402 42.277,19.308 42.277,42.629 L0.05,42.629 L0.05,0.402" id="Fill-2" fill="#48B8DD"></path>
        <path d="M84.504,0.402 C61.183,0.402 42.277,19.308 42.277,42.629 L84.504,42.629 L84.504,0.402" id="Fill-3" fill="#1E6383"></path>
        <path d="M42.277,84.856 C65.599,84.856 84.504,65.95 84.504,42.629 L42.277,42.629 L42.277,84.856" id="Fill-4" fill="#3680AA"></path>
        <path d="M0.05,42.629 C0.05,65.95 18.956,84.856 42.277,84.856 L42.277,42.629 L0.05,42.629" id="Fill-5" fill="#3790BE"></path>
    </g>
</svg>