<?xml version="1.0" encoding="UTF-8" standalone="no"?>
<svg
   xmlns:dc="http://purl.org/dc/elements/1.1/"
   xmlns:cc="http://creativecommons.org/ns#"
   xmlns:rdf="http://www.w3.org/1999/02/22-rdf-syntax-ns#"
   xmlns:svg="http://www.w3.org/2000/svg"
   xmlns="http://www.w3.org/2000/svg"
   viewBox="0 0 1122.52 793.70667"
   height="793.70667"
   width="1122.52"
   xml:space="preserve"
   id="svg2"
   version="1.1"><metadata
     id="metadata8"><rdf:RDF><cc:Work
         rdf:about=""><dc:format>image/svg+xml</dc:format><dc:type
           rdf:resource="http://purl.org/dc/dcmitype/StillImage" /></cc:Work></rdf:RDF></metadata><defs
     id="defs6"><clipPath
       id="clipPath20"
       clipPathUnits="userSpaceOnUse"><path
         id="path18"
         d="M 0,5952.8 V 0 h 8418.9 v 5952.8 z" /></clipPath></defs><g
     transform="matrix(1.3333333,0,0,-1.3333333,0,793.70667)"
     id="g10"><g
       transform="scale(0.1)"
       id="g12"><g
         id="g14"><g
           clip-path="url(#clipPath20)"
           id="g16"><path
             id="path22"
             style="fill:#ee3659;fill-opacity:1;fill-rule:nonzero;stroke:none"
             d="m 4129.57,2029.11 201.12,571.34 h 100.05 l -251.67,-675.5 h -96.96 l -179.41,569.27 -186.72,-569.27 h -97.97 l -249.59,675.5 h 100.05 l 202.13,-570.33 187.73,570.33 h 88.69 l 182.55,-571.34" /><path
             id="path24"
             style="fill:#ee3659;fill-opacity:1;fill-rule:nonzero;stroke:none"
             d="m 4544.11,2600.48 h 462.07 v -84.59 H 4635.9 v -206.23 h 349.64 v -83.58 H 4635.9 V 2009.5 h 373.38 v -84.58 h -465.17 v 675.56" /><path
             id="path26"
             style="fill:#ee3659;fill-opacity:1;fill-rule:nonzero;stroke:none"
             d="m 5164.94,1924.93 v 675.56 h 300.16 c 130.93,0 219.67,-82.56 219.67,-213.49 0,-99.03 -44.37,-175.35 -119.68,-209.38 24.75,-24.74 44.38,-55.68 59.84,-90.77 l 73.23,-161.92 h -100.05 l -57.76,134.08 c -22.67,49.49 -53.6,95.89 -105.17,97.97 h -178.45 v -232.05 z m 91.79,590.98 v -274.34 h 192.85 c 86.66,0 140.26,54.66 140.26,141.27 0,83.57 -54.67,133.07 -139.2,133.07 h -193.91" /><path
             id="path28"
             style="fill:#ee3659;fill-opacity:1;fill-rule:nonzero;stroke:none"
             d="m 6265.35,1924.93 -216.58,307.36 h -115.52 v -307.36 h -91.78 v 675.56 h 91.78 v -283.62 h 121.7 l 187.73,283.62 h 112.37 l -229.96,-326.92 252.68,-348.64 h -112.42" /><path
             id="path30"
             style="fill:#ee3659;fill-opacity:1;fill-rule:nonzero;stroke:none"
             d="m 6481.88,2600.48 h 462.07 v -84.59 h -370.29 v -206.23 h 349.65 v -83.58 H 6573.66 V 2009.5 h 373.38 v -84.58 h -465.16 v 675.56" /><path
             id="path32"
             style="fill:#ee3659;fill-opacity:1;fill-rule:nonzero;stroke:none"
             d="m 7102.71,1924.93 v 675.56 h 300.15 c 130.93,0 219.67,-82.56 219.67,-213.49 0,-99.03 -44.37,-175.35 -119.67,-209.38 24.74,-24.74 44.37,-55.68 59.83,-90.77 l 73.23,-161.92 h -100.05 l -57.76,134.08 c -22.67,49.49 -53.6,95.89 -105.17,97.97 h -178.45 v -232.05 z m 91.78,590.98 v -274.34 h 192.85 c 86.66,0 140.26,54.66 140.26,141.27 0,83.57 -54.66,133.07 -139.2,133.07 h -193.91" /><path
             id="path34"
             style="fill:#ee3659;fill-opacity:1;fill-rule:nonzero;stroke:none"
             d="m 7748.29,2038.38 c 74.24,-33.02 158.82,-40.22 242.39,-40.22 77.34,0 145.39,34.03 145.39,111.36 0,49.55 -50.51,83.57 -155.73,108.32 -155.73,38.18 -228.96,106.24 -228.96,212.47 0,122.72 102.08,183.57 224.85,183.57 80.43,0 160.85,-10.29 233.06,-44.37 l -18.56,-83.52 c -65.97,28.91 -139.25,40.21 -211.41,40.21 -68.1,0 -126.87,-29.91 -126.87,-97.97 0,-56.74 51.57,-95.89 161.91,-123.73 148.53,-36.1 218.66,-98.02 218.66,-195.99 0,-130.99 -106.23,-197.01 -237.22,-197.01 -91.78,0 -183.57,6.19 -266.07,43.36 l 18.56,83.52" /><path
             id="path36"
             style="fill:#ee3659;fill-opacity:1;fill-rule:nonzero;stroke:none"
             d="m 3340.02,4485.42 h 618.87 c 480.25,0 799.55,-329.22 799.55,-809.47 0,-482.71 -324.26,-811.93 -806.97,-811.93 h -611.45 z m 294.61,-269.8 V 3133.83 h 316.84 c 311.89,0 502.5,230.23 502.5,542.12 0,309.43 -185.65,539.67 -495.08,539.67 h -324.26" /><path
             id="path38"
             style="fill:#ee3659;fill-opacity:1;fill-rule:nonzero;stroke:none"
             d="m 4993.64,3673.48 c 0,487.67 302.02,844.14 789.69,844.14 487.61,0 792.09,-356.47 792.09,-844.14 0,-487.67 -304.48,-841.63 -792.09,-841.63 -485.22,0 -789.69,356.41 -789.69,841.63 m 1277.3,0 c 0,316.85 -170.77,564.41 -487.61,564.41 -314.4,0 -485.22,-247.56 -485.22,-564.41 0,-314.39 170.82,-561.91 485.22,-561.91 316.84,0 487.61,247.52 487.61,561.91" /><path
             id="path40"
             style="fill:#ee3659;fill-opacity:1;fill-rule:nonzero;stroke:none"
             d="m 7887.43,2864.01 -465.38,700.57 h -230.23 v -700.57 h -294.56 v 1621.4 h 294.56 v -651.02 h 254.98 l 386.18,651.02 h 358.92 l -524.79,-792.14 579.24,-829.26 h -358.92" /><path
             id="path42"
             style="fill:#ee3659;fill-opacity:1;fill-rule:nonzero;stroke:none"
             d="m 1582.72,4502.52 0.8,-130.56 c 186.45,-22.82 359.89,-88.37 510.12,-186.55 h -235.67 c -16.91,0 -30.61,-13.71 -30.61,-30.61 v -315.73 h -60.48 c -16.91,0 -30.61,-13.71 -30.61,-30.61 V 2714.67 H 527.227 l 913.103,1753.99 -4.8,-549.43 c -39.36,-24.27 -68.64,-90.56 -68.64,-133.76 0,-42.93 28.05,-78.93 66.66,-91.78 l -0.1,-12.38 h 0.21 v -26.98 c -0.37,-5.07 -2.72,-50.4 27.25,-82.67 12.43,-13.33 35.31,-29.33 73.6,-29.33 35.68,0 57.23,15.79 68.96,28.96 22.18,24.85 26.88,58.77 27.36,80.16 0.26,10.56 -9.12,18.72 -19.63,17.54 l -26.18,-3.04 c -8.38,-0.96 -15.04,-7.73 -15.52,-16.16 -0.59,-12.15 -3.31,-28.37 -11.68,-37.75 -3.26,-3.68 -9.18,-8.48 -23.31,-8.48 -19.52,0 -26.4,7.2 -28.64,9.6 -10.24,10.82 -11.52,30.34 -11.09,38.93 v 41.65 c 38.56,12.91 66.45,48.91 66.45,91.73 0,42.72 -26.56,108 -64.48,132.85 l 5.87,674.49 c 0.1,0.7 0,1.34 0.05,2.03 v 0.53 h -0.05 c 0.32,10.56 -4.48,20.96 -13.98,26.94 -11.73,7.41 -26.82,5.86 -36.79,-3.15 L 323.66,3638.17 c 122.289,293.38 357.219,528.57 650.598,650.86 L 1207.8,4490.68 C 585.359,4381.99 110.598,3838.11 110.598,3185.06 c 0,-731.02 594.707,-1325.78 1325.732,-1325.78 731.02,0 1325.72,594.76 1325.72,1325.78 0,681.48 -517,1244.34 -1179.33,1317.46 M 232.516,3226.34 434.215,3229.8 V 2714.67 H 327.766 v -10.08 c -61.918,144.96 -96.317,304.47 -96.317,471.83 0,16.75 0.426,33.33 1.067,49.92 m 310.765,-857.85 c 24.586,29.01 40.852,45.49 73.492,45.49 33.493,0 49.653,-17.28 75.356,-47.73 26.238,-31.14 58.933,-69.86 122.984,-69.86 64,0 96.692,38.72 122.93,69.86 25.707,30.45 41.867,47.73 75.357,47.73 33.5,0 49.71,-17.28 75.41,-47.73 26.24,-31.14 58.88,-69.86 122.93,-69.86 64.06,0 96.75,38.72 122.99,69.86 25.7,30.45 41.92,47.73 75.41,47.73 33.49,0 49.65,-17.28 75.41,-47.73 26.24,-31.14 58.88,-69.86 122.93,-69.86 64.05,0 96.75,38.72 122.99,69.86 25.7,30.45 41.86,47.73 75.41,47.73 33.49,0 49.65,-17.28 75.36,-47.73 26.24,-31.14 58.87,-69.86 122.93,-69.86 64.05,0 96.69,38.72 122.93,69.86 25.7,30.45 41.92,47.73 75.41,47.73 33.49,0 49.65,-17.28 75.41,-47.73 7.09,-8.48 15.04,-17.38 23.68,-26.02 -219.25,-227.04 -526.44,-368.69 -866.27,-368.69 -353.81,0 -672.416,153.33 -893.049,396.95 M 1888.58,4124.18 h 290.5 c 102.13,-80.15 190.88,-176.58 262.72,-285.11 h -553.22 z m -91.09,-346.34 h 682.17 c 102.56,-177.11 161.54,-382.44 161.54,-601.42 0,-163.52 -32.9,-319.46 -92.15,-461.75 h -751.56 z m 724.14,-1124.4 c -46.98,-97.11 -106.87,-186.82 -177.01,-267.35 -5.76,5.97 -11.62,12.48 -18.18,20.21 -26.24,31.15 -58.88,69.87 -122.93,69.87 -64.05,0 -96.75,-38.72 -122.93,-69.87 -25.76,-30.45 -41.92,-47.73 -75.41,-47.73 -33.5,0 -49.66,17.28 -75.36,47.73 -26.24,31.15 -58.93,69.87 -122.93,69.87 -64.05,0 -96.75,-38.72 -122.99,-69.87 -25.7,-30.45 -41.92,-47.73 -75.41,-47.73 -33.49,0 -49.65,17.28 -75.41,47.73 -26.24,31.15 -58.88,69.87 -122.93,69.87 -64.05,0 -96.69,-38.72 -122.98,-69.81 -25.71,-30.51 -41.87,-47.79 -75.42,-47.79 -33.49,0 -49.65,17.28 -75.35,47.73 -26.3,31.15 -58.94,69.87 -122.99,69.87 -63.998,0 -96.689,-38.72 -122.927,-69.87 -25.707,-30.45 -41.868,-47.73 -75.36,-47.73 -33.492,0 -49.707,17.28 -75.41,47.73 -26.238,31.15 -58.879,69.87 -122.93,69.87 -57.386,0 -89.492,-31.04 -114.453,-59.89 -59.144,72.58 -110.129,152.05 -151.3,237.16 z M 495.441,2786.19 v 415.62 l 158.184,-111.74 z m 12.852,481.53 145.117,192.32 v -294.87 z m 206.344,-60.53 v 286.77 l 141.062,-15.73 z m 158.234,330.77 -148.262,16.53 148.262,196.48 z m 61.227,90.88 v 187.46 l 106.502,17.12 z m 39.679,255.83 91.303,121.06 0.16,-106.34 z m 152.533,113.38 -0.11,88.69 149.38,198.03 z m 145.54,383.46 -822.432,-1090.21 -212.637,-3.15 c 7.465,80.42 22.774,158.61 45.332,233.7 l 989.737,859.66" /><path
             id="path44"
             style="fill:#ee3659;fill-opacity:1;fill-rule:nonzero;stroke:none"
             d="m 2030.46,3176.85 c -69.86,0 -126.82,-53.44 -132,-122.67 -0.42,-2.02 -0.64,-4.21 -0.64,-6.4 v -212.79 c 0,-16.91 13.71,-30.62 30.62,-30.62 h 204.05 c 16.9,0 30.61,13.71 30.61,30.62 v 212.79 c 0,2.19 -0.22,4.38 -0.64,6.4 -5.17,69.23 -62.13,122.67 -132,122.67 m 71.41,-311.25 h -142.82 v 177.49 c 0.16,1.17 0.27,2.4 0.32,3.63 1.39,38.61 32.59,68.9 71.09,68.9 38.51,0 69.71,-30.29 71.09,-68.9 0.06,-1.23 0.16,-2.4 0.32,-3.58 V 2865.6" /><path
             id="path46"
             style="fill:#ee3659;fill-opacity:1;fill-rule:nonzero;stroke:none"
             d="m 2030.46,3701.26 c -69.86,0 -126.82,-53.44 -132,-122.66 -0.42,-2.03 -0.64,-4.22 -0.64,-6.4 v -212.8 c 0,-16.9 13.71,-30.61 30.62,-30.61 h 204.05 c 16.9,0 30.61,13.71 30.61,30.61 v 212.8 c 0,2.18 -0.22,4.37 -0.64,6.4 -5.17,69.22 -62.13,122.66 -132,122.66 m 71.41,-311.25 h -142.82 v 177.49 c 0.16,1.18 0.27,2.4 0.32,3.63 1.39,38.61 32.59,68.9 71.09,68.9 38.51,0 69.71,-30.29 71.09,-68.9 0.06,-1.23 0.16,-2.4 0.32,-3.57 v -177.55" /><path
             id="path48"
             style="fill:#ee3659;fill-opacity:1;fill-rule:nonzero;stroke:none"
             d="m 2396.08,3701.26 c -69.87,0 -126.82,-53.44 -132,-122.66 -0.42,-2.08 -0.64,-4.22 -0.64,-6.4 v -212.8 c 0,-16.9 13.71,-30.61 30.62,-30.61 h 204.04 c 16.91,0 30.62,13.71 30.62,30.61 v 212.8 c 0,2.24 -0.22,4.37 -0.64,6.45 -5.18,69.17 -62.19,122.61 -132,122.61 m 71.41,-311.25 h -142.82 v 177.49 c 0.16,1.18 0.26,2.4 0.32,3.63 1.38,38.61 32.58,68.9 71.09,68.9 38.51,0 69.7,-30.29 71.09,-68.9 0.05,-1.23 0.16,-2.45 0.32,-3.63 v -177.49" /><path
             id="path50"
             style="fill:#ee3659;fill-opacity:1;fill-rule:nonzero;stroke:none"
             d="m 2396.08,3176.85 c -69.87,0 -126.82,-53.44 -132,-122.67 -0.42,-2.08 -0.64,-4.21 -0.64,-6.4 v -212.79 c 0,-16.91 13.71,-30.62 30.62,-30.62 h 204.04 c 16.91,0 30.62,13.71 30.62,30.62 v 212.79 c 0,2.24 -0.22,4.38 -0.64,6.46 -5.18,69.17 -62.19,122.61 -132,122.61 m 71.41,-311.25 h -142.82 v 177.49 c 0.16,1.17 0.26,2.4 0.32,3.63 1.38,38.61 32.58,68.9 71.09,68.9 38.51,0 69.7,-30.29 71.09,-68.9 0.05,-1.23 0.16,-2.46 0.32,-3.63 V 2865.6" /><path
             id="path52"
             style="fill:#393536;fill-opacity:1;fill-rule:nonzero;stroke:none"
             d="m 3501.59,1223.04 c -22.12,-9.28 -46,-12.82 -70.33,-12.82 -62.37,0 -101.3,44.24 -101.3,106.6 0,65.92 38.48,114.13 104.4,114.13 23,0 45.56,-3.1 67.23,-11.94 -3.09,-14.15 -5.31,-27.43 -7.96,-41.58 -15.93,7.07 -33.18,10.17 -51.31,10.17 -38.49,0 -59.28,-32.29 -59.28,-70.78 0,-36.71 23,-62.81 59.28,-62.81 18.13,0 35.38,3.1 51.75,10.18 l 7.52,-41.15" /><path
             id="path54"
             style="fill:#393536;fill-opacity:1;fill-rule:nonzero;stroke:none"
             d="m 3662.15,1381.85 c -27.87,-0.44 -49.99,-13.71 -65.91,-34.5 v -131.38 h -50.87 v 209.23 h 37.15 l 10.18,-38.92 c 18.57,25.65 43.35,44.67 75.64,44.67 0,-0.88 -5.75,-48.21 -6.19,-49.1" /><path
             id="path56"
             style="fill:#393536;fill-opacity:1;fill-rule:nonzero;stroke:none"
             d="m 3737.33,1341.6 84.49,2.21 c -2.22,23.44 -14.16,43.79 -41.14,43.79 -27.87,0 -39.37,-20.35 -43.35,-46 z m 126.07,-114.13 c -23,-10.62 -47.34,-17.25 -72.11,-17.25 -66.79,0 -107.49,44.24 -107.49,109.26 0,64.14 36.27,111.47 98.21,111.47 55.73,0 87.14,-37.15 89.35,-85.82 h -1.33 1.33 c 0,-12.82 -0.44,-28.31 -3.1,-41.57 h -131.38 c 5.31,-30.09 25.66,-49.99 60.17,-49.99 20.79,0 40.69,5.31 59.27,15.92 0,-0.44 7.08,-42.02 7.08,-42.02" /><path
             id="path58"
             style="fill:#393536;fill-opacity:1;fill-rule:nonzero;stroke:none"
             d="m 4028.37,1269.49 v 39.37 l -23.45,-2.65 c -24.77,-2.65 -49.98,-8.85 -49.98,-30.96 0,-14.6 12.38,-23.01 29.63,-23.01 16.82,0 31.41,6.64 43.8,17.25 z m -125.63,3.54 c 0,47.78 44.68,65.03 94.66,70.34 l 30.97,3.09 v 4.43 c 0,24.77 -20.35,36.71 -45.12,36.71 -20.35,0 -40.7,-3.54 -60.6,-9.73 0,0.44 -8.41,41.14 -8.41,41.58 23.01,7.08 46.89,11.5 70.33,11.5 54.86,0 94.23,-26.98 94.23,-80.06 v -80.96 c 0,-12.38 10.17,-17.69 23,-17.69 v -38.48 l -19.47,-3.54 c -23,0 -41.58,8.84 -49.54,26.1 -17.69,-15.93 -35.83,-26.1 -58.39,-26.1 -42.02,0 -71.66,24.77 -71.66,62.81" /><path
             id="path60"
             style="fill:#393536;fill-opacity:1;fill-rule:nonzero;stroke:none"
             d="m 4124.78,1425.2 h 21.23 v 55.74 l 50.43,11.94 v -67.68 h 53.52 v -38.48 l -5.31,-5.31 h -48.21 v -99.97 c 0,-20.79 19.01,-28.76 38.04,-28.76 h 17.25 v -37.59 l -37.16,-4.87 c -36.27,0 -68.56,21.67 -68.56,67.68 v 103.51 h -21.23 v 43.79" /><path
             id="path62"
             style="fill:#393536;fill-opacity:1;fill-rule:nonzero;stroke:none"
             d="m 4343.28,1425.2 v -155.27 c 0,-12.38 10.17,-17.69 22.56,-17.69 v -38.48 l -20.79,-3.54 c -30.08,0 -52.2,16.81 -52.2,46.45 v 168.53 z m -58.39,80.07 c 0,19.02 13.71,31.85 32.73,31.85 19.91,0 33.18,-12.83 33.18,-31.85 0,-19.91 -12.83,-33.62 -33.18,-33.62 -19.9,0 -32.73,13.71 -32.73,33.62" /><path
             id="path64"
             style="fill:#393536;fill-opacity:1;fill-rule:nonzero;stroke:none"
             d="m 4451.2,1341.6 84.49,2.21 c -2.21,23.44 -14.16,43.79 -41.14,43.79 -27.87,0 -39.37,-20.35 -43.35,-46 z m 126.07,-114.13 c -23,-10.62 -47.33,-17.25 -72.1,-17.25 -66.8,0 -107.49,44.24 -107.49,109.26 0,64.14 36.27,111.47 98.2,111.47 55.73,0 87.14,-37.15 89.35,-85.82 h -1.32 1.32 c 0,-12.82 -0.44,-28.31 -3.1,-41.57 h -131.37 c 5.3,-30.09 25.65,-49.99 60.16,-49.99 20.79,0 40.69,5.31 59.27,15.92 0,-0.44 7.08,-42.02 7.08,-42.02" /><path
             id="path66"
             style="fill:#393536;fill-opacity:1;fill-rule:nonzero;stroke:none"
             d="m 4732.96,1215.97 h -51.76 l -79.18,209.23 h 56.18 l 49.54,-151.28 48.66,151.28 h 56.18 l -79.62,-209.23" /><path
             id="path68"
             style="fill:#393536;fill-opacity:1;fill-rule:nonzero;stroke:none"
             d="m 4884.22,1341.6 84.49,2.21 c -2.21,23.44 -14.15,43.79 -41.14,43.79 -27.87,0 -39.37,-20.35 -43.35,-46 z m 126.07,-114.13 c -23,-10.62 -47.33,-17.25 -72.1,-17.25 -66.8,0 -107.49,44.24 -107.49,109.26 0,64.14 36.27,111.47 98.2,111.47 55.73,0 87.14,-37.15 89.35,-85.82 h -1.32 1.32 c 0,-12.82 -0.44,-28.31 -3.09,-41.57 h -131.38 c 5.31,-30.09 25.65,-49.99 60.16,-49.99 20.79,0 40.69,5.31 59.27,15.92 0,-0.44 7.08,-42.02 7.08,-42.02" /><path
             id="path70"
             style="fill:#393536;fill-opacity:1;fill-rule:nonzero;stroke:none"
             d="m 5323,1223.04 c -22.12,-9.28 -46.01,-12.82 -70.33,-12.82 -62.38,0 -101.3,44.24 -101.3,106.6 0,65.92 38.48,114.13 104.39,114.13 23,0 45.56,-3.1 67.24,-11.94 -3.1,-14.15 -5.31,-27.43 -7.97,-41.58 -15.92,7.07 -33.17,10.17 -51.3,10.17 -38.49,0 -59.28,-32.29 -59.28,-70.78 0,-36.71 23,-62.81 59.28,-62.81 18.13,0 35.38,3.1 51.75,10.18 l 7.52,-41.15" /><path
             id="path72"
             style="fill:#393536;fill-opacity:1;fill-rule:nonzero;stroke:none"
             d="m 5499.48,1319.04 c 0,35.83 -12.39,68.56 -48.22,68.56 -35.39,0 -48.21,-32.73 -48.21,-68.56 0,-34.51 13.71,-65.47 48.21,-65.47 34.95,0 48.22,30.96 48.22,65.47 z m -148.63,0 c 0,64.14 35.83,111.91 100.41,111.91 64.15,0 100.86,-47.77 100.86,-111.91 0,-63.7 -37.6,-108.82 -100.86,-108.82 -63.25,0 -100.41,45.12 -100.41,108.82" /><path
             id="path74"
             style="fill:#393536;fill-opacity:1;fill-rule:nonzero;stroke:none"
             d="m 5740.54,1425.2 38.93,-148.63 38.48,148.63 h 55.74 l -66.8,-209.23 h -49.54 l -34.95,147.3 -35.83,-147.3 h -49.1 l -63.26,209.23 h 55.74 l 35.83,-146.86 38.93,146.86 h 35.83" /><path
             id="path76"
             style="fill:#393536;fill-opacity:1;fill-rule:nonzero;stroke:none"
             d="m 6043.53,1319.04 c 0,35.83 -12.39,68.56 -48.22,68.56 -35.39,0 -48.22,-32.73 -48.22,-68.56 0,-34.51 13.72,-65.47 48.22,-65.47 34.94,0 48.22,30.96 48.22,65.47 z m -148.63,0 c 0,64.14 35.83,111.91 100.41,111.91 64.14,0 100.86,-47.77 100.86,-111.91 0,-63.7 -37.61,-108.82 -100.86,-108.82 -63.25,0 -100.41,45.12 -100.41,108.82" /><path
             id="path78"
             style="fill:#393536;fill-opacity:1;fill-rule:nonzero;stroke:none"
             d="m 6258.49,1381.85 c -27.87,-0.44 -49.99,-13.71 -65.92,-34.5 v -131.38 h -50.87 v 209.23 h 37.16 l 10.18,-38.92 c 18.57,25.65 43.35,44.67 75.64,44.67 0,-0.88 -5.75,-48.21 -6.19,-49.1" /><path
             id="path80"
             style="fill:#393536;fill-opacity:1;fill-rule:nonzero;stroke:none"
             d="m 6384.98,1300.9 h -36.72 v -84.93 h -50.87 v 305.66 l 50.87,11.95 v -184.46 h 38.49 l 32.73,76.08 63.7,4.87 -58.39,-106.17 63.7,-107.93 h -58.39 l -45.12,84.93" /><path
             id="path82"
             style="fill:#393536;fill-opacity:1;fill-rule:nonzero;stroke:none"
             d="m 6572.95,1425.2 v -155.27 c 0,-12.38 10.17,-17.69 22.56,-17.69 v -38.48 l -20.79,-3.54 c -30.08,0 -52.2,16.81 -52.2,46.45 v 168.53 z m -58.39,80.07 c 0,19.02 13.71,31.85 32.73,31.85 19.91,0 33.18,-12.83 33.18,-31.85 0,-19.91 -12.83,-33.62 -33.18,-33.62 -19.9,0 -32.73,13.71 -32.73,33.62" /><path
             id="path84"
             style="fill:#393536;fill-opacity:1;fill-rule:nonzero;stroke:none"
             d="m 6637.95,1215.97 v 209.23 h 39.37 l 5.76,-23.44 c 16.8,17.69 38.92,29.19 64.58,29.19 44.67,0 73.43,-30.08 73.43,-75.2 v -139.78 h -50.87 v 131.38 c 0,21.67 -13.72,36.71 -35.39,36.71 -18.14,0 -33.62,-7.96 -46.01,-20.35 v -147.74 h -50.87" /><path
             id="path86"
             style="fill:#393536;fill-opacity:1;fill-rule:nonzero;stroke:none"
             d="m 7003.75,1265.95 v 104.84 c -11.5,9.73 -25.21,15.04 -40.25,15.04 -32.74,0 -46.01,-29.19 -46.01,-62.37 0,-35.39 13.72,-66.35 48.66,-66.35 13.27,0 26.1,2.21 37.6,8.84 z m 9.29,144.21 6.64,15.04 h 34.94 v -201.71 c 0,-65.03 -42.02,-107.49 -107.05,-107.49 -23,0 -45.56,5.75 -67.23,14.15 0.44,0.89 7.07,38.48 7.52,38.93 17.25,-9.29 36.71,-12.83 56.62,-12.83 37.6,0 58.39,26.98 59.27,64.14 -15.04,-7.52 -31.41,-10.17 -48.22,-10.17 -61.04,0 -90.24,52.64 -90.24,113.24 0,58.83 30.09,107.49 88.92,107.49 21.67,0 42.46,-7.52 58.83,-20.79" /><path
             id="path88"
             style="fill:#393536;fill-opacity:1;fill-rule:nonzero;stroke:none"
             d="m 7205.42,1268.61 c 24.78,-10.18 50.88,-15.04 78.31,-15.04 17.69,0 34.5,5.31 34.5,20.35 0,28.31 -114.13,11.94 -114.13,92.45 0,45.56 39.81,64.58 84.93,64.58 25.22,0 49.99,-3.98 73.43,-11.94 l -7.96,-43.79 c -21.68,7.07 -44.24,12.38 -67.24,12.38 -16.37,0 -32.29,-4.86 -32.29,-19.9 0,-34.51 114.13,-12.39 114.13,-90.24 0,-46.01 -40.26,-67.24 -86.7,-67.24 -29.2,0 -58.4,3.98 -85.82,13.71 0.44,0.89 8.41,43.35 8.84,44.68" /><path
             id="path90"
             style="fill:#393536;fill-opacity:1;fill-rule:nonzero;stroke:none"
             d="m 7464.18,1370.35 v -104.4 c 11.06,-6.63 24.33,-8.84 37.6,-8.84 34.95,0 48.66,30.96 48.66,65.91 0,33.62 -13.27,62.81 -46.45,62.81 -15.03,0 -28.75,-5.31 -39.81,-15.48 z m -9.29,38.49 c 16.37,14.59 36.27,22.11 58.39,22.11 59.28,0 89.36,-48.21 89.36,-107.49 0,-61.49 -28.75,-113.24 -90.69,-113.24 -16.8,0 -33.17,2.65 -47.77,10.17 V 1116 h -50.87 v 309.2 h 34.95 l 6.63,-16.36" /><path
             id="path92"
             style="fill:#393536;fill-opacity:1;fill-rule:nonzero;stroke:none"
             d="m 7761.42,1269.49 v 39.37 l -23.45,-2.65 c -24.77,-2.65 -49.99,-8.85 -49.99,-30.96 0,-14.6 12.39,-23.01 29.64,-23.01 16.81,0 31.41,6.64 43.8,17.25 z m -125.63,3.54 c 0,47.78 44.67,65.03 94.66,70.34 l 30.97,3.09 v 4.43 c 0,24.77 -20.36,36.71 -45.13,36.71 -20.34,0 -40.69,-3.54 -60.6,-9.73 0,0.44 -8.4,41.14 -8.4,41.58 23,7.08 46.89,11.5 70.33,11.5 54.86,0 94.23,-26.98 94.23,-80.06 v -80.96 c 0,-12.38 10.17,-17.69 22.99,-17.69 v -38.48 l -19.46,-3.54 c -23,0 -41.58,8.84 -49.54,26.1 -17.7,-15.93 -35.83,-26.1 -58.39,-26.1 -42.03,0 -71.66,24.77 -71.66,62.81" /><path
             id="path94"
             style="fill:#393536;fill-opacity:1;fill-rule:nonzero;stroke:none"
             d="m 8034.32,1223.04 c -22.12,-9.28 -46,-12.82 -70.33,-12.82 -62.37,0 -101.3,44.24 -101.3,106.6 0,65.92 38.48,114.13 104.39,114.13 23.01,0 45.57,-3.1 67.24,-11.94 -3.09,-14.15 -5.31,-27.43 -7.96,-41.58 -15.93,7.07 -33.18,10.17 -51.31,10.17 -38.49,0 -59.28,-32.29 -59.28,-70.78 0,-36.71 23,-62.81 59.28,-62.81 18.13,0 35.38,3.1 51.75,10.18 l 7.52,-41.15" /><path
             id="path96"
             style="fill:#393536;fill-opacity:1;fill-rule:nonzero;stroke:none"
             d="m 8115.7,1341.6 84.49,2.21 c -2.22,23.44 -14.16,43.79 -41.14,43.79 -27.87,0 -39.37,-20.35 -43.35,-46 z m 126.07,-114.13 c -23.01,-10.62 -47.34,-17.25 -72.11,-17.25 -66.79,0 -107.49,44.24 -107.49,109.26 0,64.14 36.27,111.47 98.21,111.47 55.73,0 87.14,-37.15 89.35,-85.82 h -1.33 1.33 c 0,-12.82 -0.44,-28.31 -3.1,-41.57 h -131.38 c 5.31,-30.09 25.66,-49.99 60.17,-49.99 20.79,0 40.69,5.31 59.27,15.92 0,-0.44 7.08,-42.02 7.08,-42.02" /></g></g></g></g></svg>