<?xml version="1.0" encoding="UTF-8" standalone="no"?>
<svg
   xmlns:dc="http://purl.org/dc/elements/1.1/"
   xmlns:cc="http://creativecommons.org/ns#"
   xmlns:rdf="http://www.w3.org/1999/02/22-rdf-syntax-ns#"
   xmlns:svg="http://www.w3.org/2000/svg"
   xmlns="http://www.w3.org/2000/svg"
   viewBox="0 0 482.37332 516.73334"
   height="516.73334"
   width="482.37332"
   xml:space="preserve"
   id="svg2"
   version="1.1"><metadata
     id="metadata8"><rdf:RDF><cc:Work
         rdf:about=""><dc:format>image/svg+xml</dc:format><dc:type
           rdf:resource="http://purl.org/dc/dcmitype/StillImage" /></cc:Work></rdf:RDF></metadata><defs
     id="defs6"><clipPath
       id="clipPath20"
       clipPathUnits="userSpaceOnUse"><path
         id="path18"
         d="M 0,0 H 3617.79 V 3875 H 0 Z" /></clipPath></defs><g
     transform="matrix(1.3333333,0,0,-1.3333333,0,516.73333)"
     id="g10"><g
       transform="scale(0.1)"
       id="g12"><g
         id="g14"><g
           clip-path="url(#clipPath20)"
           id="g16"><path
             id="path22"
             style="fill:#231f20;fill-opacity:1;fill-rule:nonzero;stroke:none"
             d="m 108.207,1907.13 c 0,-29.88 -24.2226,-54.11 -54.1054,-54.11 C 24.2227,1853.02 0,1877.25 0,1907.13 c 0,29.88 24.2227,54.1 54.1016,54.1 29.8828,0 54.1054,-24.22 54.1054,-54.1" /><path
             id="path24"
             style="fill:#231f20;fill-opacity:1;fill-rule:nonzero;stroke:none"
             d="m 696.043,3518.11 -8.949,14.88 61.246,36.94 8.965,-14.88 -17.098,-14.8 35.504,-58.88 82.672,49.86 -35.524,58.89 -21.062,-8.24 -8.969,14.88 19.098,11.51 23.062,13.92 19.082,11.51 8.985,-14.88 -17.114,-14.78 81.012,-134.31 21.047,8.24 8.895,-14.77 -61.227,-36.93 -8.895,14.74 17.098,14.8 -34.539,57.26 -82.672,-49.86 34.543,-57.25 21.063,8.22 8.875,-14.75 -61.203,-36.95 -8.915,14.76 17.118,14.78 -81.016,134.31 -21.082,-8.22" /><path
             id="path26"
             style="fill:#231f20;fill-opacity:1;fill-rule:nonzero;stroke:none"
             d="m 991.945,3699.07 6.875,-15.96 -18.953,-12.32 44.983,-104.5 c 5.95,-13.82 14.4,-22.61 25.37,-26.37 10.93,-3.76 22.87,-2.87 35.76,2.67 13.55,5.84 22.96,14.1 28.19,24.8 5.22,10.67 4.84,22.97 -1.14,36.86 l -45,104.52 -21.99,-5.31 -6.86,15.95 45.2,19.48 20.46,8.81 6.9,-15.96 -18.99,-12.31 45.03,-104.52 c 8.53,-19.84 8.63,-37.85 0.24,-54.02 -8.37,-16.15 -22.94,-28.7 -43.69,-37.65 -20.19,-8.69 -38.8,-10.42 -55.84,-5.19 -17.03,5.21 -29.83,17.74 -38.36,37.59 l -45.021,104.49 -21.968,-5.29 -6.879,15.93 20.48,8.82 45.203,19.48" /><path
             id="path28"
             style="fill:#231f20;fill-opacity:1;fill-rule:nonzero;stroke:none"
             d="m 1344.63,3757.17 -18.24,-5.26 -12.66,25.67 c -5.39,2.91 -11.53,4.78 -18.43,5.65 -6.89,0.88 -14.57,0.08 -23.08,-2.36 -19.88,-5.73 -33.09,-17.33 -39.63,-34.83 -6.55,-17.48 -6.63,-37.33 -0.24,-59.48 l 0.87,-3.02 c 6.37,-22.15 16.9,-39 31.52,-50.47 14.65,-11.48 31.25,-14.55 49.82,-9.21 8.68,2.5 16.17,6.13 22.49,10.88 6.31,4.76 10.82,9.68 13.56,14.71 l -2.92,28.47 18.24,5.28 9.8,-34.06 c -3.47,-8.69 -9.91,-17.4 -19.37,-26.13 -9.42,-8.75 -21.42,-15.21 -35.98,-19.39 -24.86,-7.17 -47.92,-3.84 -69.15,9.97 -21.25,13.82 -35.89,34.65 -43.91,62.51 l -0.78,2.77 c -8.08,28.01 -6.91,53.47 3.49,76.34 10.39,22.86 28.3,37.96 53.7,45.27 14.55,4.18 28.15,5.04 40.81,2.56 12.66,-2.47 22.77,-6.42 30.3,-11.84 l 9.79,-34.03" /><path
             id="path30"
             style="fill:#231f20;fill-opacity:1;fill-rule:nonzero;stroke:none"
             d="m 1440.78,3656.09 21.41,7.28 -24.63,154.9 -22.61,0.29 -2.73,17.15 70.65,11.22 2.71,-17.15 -21.41,-7.28 10.49,-66.02 20.39,3.22 44.17,76.67 -15.01,-0.44 -2.73,17.13 62.41,9.94 2.71,-17.16 -17.95,-6.31 -48.26,-84.1 78.54,-70.74 19.03,-0.44 2.71,-17.01 -64.56,-10.26 -2.71,17.01 14.7,4.28 -67.15,60.91 -22.96,-3.66 10.81,-67.93 22.61,-0.27 2.69,-17.01 -70.63,-11.24 -2.69,17.02" /><path
             id="path32"
             style="fill:#231f20;fill-opacity:1;fill-rule:nonzero;stroke:none"
             d="m 1676.42,3671.7 -0.68,17.21 22.12,4.69 -6.22,156.74 -22.41,2.94 -0.69,17.35 22.26,0.89 26.92,1.06 22.29,0.89 0.67,-17.35 -22.12,-4.71 6.22,-156.74 69.16,2.77 1.12,22.9 22.96,0.89 1.75,-43.85 -143.35,-5.68" /><path
             id="path34"
             style="fill:#231f20;fill-opacity:1;fill-rule:nonzero;stroke:none"
             d="m 1877.19,3676.9 1.25,17.19 22.5,2.2 11.44,156.43 -21.95,5.44 1.26,17.33 152.47,-11.15 -3.49,-47.71 -23.04,1.67 -0.24,26.76 -78.14,5.69 -4.71,-64.22 75.97,-5.57 -1.52,-21.12 -75.98,5.55 -5.18,-71.05 79.77,-5.83 4.13,26.42 22.9,-1.65 -3.47,-47.62 -153.97,11.24" /><path
             id="path36"
             style="fill:#231f20;fill-opacity:1;fill-rule:nonzero;stroke:none"
             d="m 2289.48,3822.71 -8.31,-43.24 -22.57,4.35 2.31,22.8 -43.37,8.36 -29.65,-154.03 21.18,-7.97 -3.26,-16.93 -70.23,13.51 3.24,16.92 22.63,-0.46 29.63,154.03 -43.51,8.37 -6.2,-22.06 -22.69,4.36 8.32,43.25 162.48,-31.26" /><path
             id="path38"
             style="fill:#231f20;fill-opacity:1;fill-rule:nonzero;stroke:none"
             d="m 2381.5,3704.71 33.74,-10.78 c 14.33,-4.57 25.65,-5.17 33.89,-1.79 8.27,3.41 14.07,10.36 17.42,20.87 3.2,10 2.58,18.9 -1.8,26.7 -4.4,7.82 -13.17,13.82 -26.26,18 l -36.36,11.61 z m 63.37,73.05 c 20.68,-6.58 35.07,-16.22 43.18,-28.92 8.08,-12.68 9.48,-27.45 4.07,-44.27 -2.92,-9.21 -8.09,-16.57 -15.51,-22.05 -7.37,-5.49 -16.52,-8.75 -27.36,-9.78 9.24,-6.68 14.95,-14.57 17.05,-23.67 2.12,-9.09 1.42,-19.26 -2.17,-30.46 l -4.87,-15.23 c -1.86,-5.84 -2.48,-10.36 -1.91,-13.6 0.6,-3.26 2.51,-5.68 5.73,-7.3 l 6,-2.76 -5.37,-16.81 -13.8,4.4 c -10.01,3.21 -15.99,8.93 -17.99,17.23 -2,8.29 -1.4,17.39 1.75,27.28 l 4.71,14.72 c 3.31,10.33 2.94,19.58 -1.04,27.75 -4,8.17 -11.04,13.86 -21.12,17.08 l -41.16,13.15 -20.64,-64.62 20.08,-10.42 -5.22,-16.43 -68.14,21.75 5.24,16.41 22.39,-3.13 47.69,149.42 -20.06,10.43 5.24,16.42 21.22,-6.78 62.01,-19.81" /><path
             id="path40"
             style="fill:#231f20;fill-opacity:1;fill-rule:nonzero;stroke:none"
             d="m 2515.01,3542.67 7.18,15.67 21.86,-5.8 65.32,142.6 -18.68,12.75 7.24,15.79 139,-63.66 -19.93,-43.5 -21.01,9.64 9.11,25.13 -71.25,32.63 -26.82,-58.53 69.26,-31.76 -8.84,-19.24 -69.25,31.7 -29.66,-64.75 72.72,-33.32 13.09,23.33 20.9,-9.58 -19.88,-43.38 -140.36,64.28" /><path
             id="path42"
             style="fill:#231f20;fill-opacity:1;fill-rule:nonzero;stroke:none"
             d="m 2709.21,3450.1 8.95,14.74 21.05,-8.37 81.61,133.96 -17.04,14.86 9.04,14.84 130.56,-79.58 -24.92,-40.87 -19.74,12.03 12.01,23.9 -66.9,40.8 -33.52,-55.01 65.04,-39.65 -11.06,-18.1 -65.02,39.67 -37.07,-60.86 68.3,-41.61 15.75,21.61 19.61,-11.96 -24.83,-40.76 -131.82,80.36" /><path
             id="path44"
             style="fill:#231f20;fill-opacity:1;fill-rule:nonzero;stroke:none"
             d="m 1264.63,87.1211 4.06,14.3479 19.45,-2.0276 36.74,130.5196 -17.65,8.418 4.08,14.453 18.53,-5.223 22.43,-6.328 18.55,-5.211 -4.07,-14.461 -19.46,2.043 -36.75,-130.5231 57.59,-16.207 7.06,18.5195 19.13,-5.4102 -10.29,-36.5 -119.4,33.5899" /><path
             id="path46"
             style="fill:#231f20;fill-opacity:1;fill-rule:nonzero;stroke:none"
             d="m 1582.89,104.512 c 3.35,19.738 1.36,36.648 -5.97,50.73 -7.31,14.059 -19.31,22.52 -36.03,25.367 -16.02,2.711 -29.56,-1.41 -40.65,-12.398 -11.12,-10.992 -18.34,-26.301 -21.68,-45.961 l -0.46,-2.68 c -3.38,-19.8981 -1.64,-36.8278 5.22,-50.8395 6.84,-13.9805 18.26,-22.3516 34.29,-25.0782 16.93,-2.8711 31.14,1.1094 42.56,11.9688 11.44,10.8398 18.84,26.25 22.25,46.2189 z m 22.5,-6.5823 C 1601.19,73.2305 1590.6,53.9102 1573.65,40 c -16.97,-13.8984 -36.71,-18.918 -59.22,-15.1211 -21.92,3.7305 -38.35,14.9297 -49.24,33.5625 -10.9,18.6406 -14.24,40.3203 -10.04,65.0196 l 0.4,2.461 c 4.18,24.648 14.53,43.98 30.97,58.058 16.48,14.059 35.67,19.231 57.57,15.512 22.54,-3.812 39.51,-15.152 50.89,-33.953 11.41,-18.809 15.01,-40.527 10.83,-65.18 l -0.42,-2.4293" /><path
             id="path48"
             style="fill:#231f20;fill-opacity:1;fill-rule:nonzero;stroke:none"
             d="m 1833.72,171.082 -0.68,-14.98 -19.4,-2.461 L 1806.63,0 l -23.26,1.05078 -76.63,136.53122 -0.73,-0.203 -5.2,-114.3399 19.1,-4.1797 -0.68,-14.87893 -61.75,2.82031 0.66,14.87892 19.41,2.4414 6.16,135.4689 -19.1,4.18 0.69,14.992 19.25,-0.891 23.28,-1.062 76.63,-136.3793 0.71,0.1992 5.2,114.0821 -19.1,4.199 0.68,14.992 42.52,-1.933 19.25,-0.887" /><path
             id="path50"
             style="fill:#231f20;fill-opacity:1;fill-rule:nonzero;stroke:none"
             d="m 1921.73,157.332 10.46,-135.2031 29.45,2.293 c 15.9,1.2187 28.01,7.4297 36.34,18.5781 8.33,11.1602 11.9,24.9219 10.62,41.2891 l -1.83,23.6599 c -1.26,16.211 -6.86,29.16 -16.83,38.91 -9.97,9.75 -22.88,14 -38.76,12.782 z m 28.05,20.566 c 22.39,1.731 40.93,-3.757 55.64,-16.488 14.7,-12.75 22.9,-30.051 24.57,-51.879 l 1.84,-23.4802 c 1.69,-21.9024 -3.74,-40.25 -16.31,-55.0196 C 2002.93,16.2617 1985.45,8 1963.06,6.26953 l -71.9,-5.558592 -1.17,14.839862 18.97,4.8008 -10.47,135.1994 -19.46,1.82 -1.17,14.969 19.21,1.492 52.71,4.066" /><path
             id="path52"
             style="fill:#231f20;fill-opacity:1;fill-rule:nonzero;stroke:none"
             d="m 2217.27,132.469 c -3.89,19.621 -11.79,34.703 -23.65,45.25 -11.86,10.523 -26.12,14.152 -42.72,10.832 -15.94,-3.172 -27.12,-11.879 -33.58,-26.09 -6.44,-14.219 -7.69,-31.121 -3.82,-50.672 l 0.53,-2.68 c 3.96,-19.7887 11.62,-34.9684 23.03,-45.609 11.38,-10.6484 25.06,-14.3594 40.98,-11.2109 16.86,3.3711 28.68,12.1523 35.48,26.3906 6.82,14.2109 8.24,31.2503 4.3,51.1293 z m 23.39,1.871 c 4.89,-24.59 1.91,-46.3986 -8.98,-65.4181 -10.86,-19.0703 -27.51,-30.8008 -49.93,-35.2696 -21.79,-4.3515 -41.11,0.25 -57.94,13.75 -16.84,13.5274 -27.72,32.5665 -32.63,57.1677 l -0.47,2.422 c -4.87,24.508 -2.15,46.27 8.2,65.289 10.35,19.028 26.43,30.711 48.24,35.051 22.41,4.457 42.29,-0.051 59.66,-13.551 17.35,-13.492 28.47,-32.5 33.36,-57 l 0.49,-2.441" /><path
             id="path54"
             style="fill:#231f20;fill-opacity:1;fill-rule:nonzero;stroke:none"
             d="m 2427.34,284.309 4.72,-14.239 -17.24,-9.238 48.51,-145.953 -22.1,-7.348 -120.45,100 -0.6,-0.449 36.11,-108.6132 19.33,2.9532 4.7,-14.1525 -58.68,-19.4804 -4.69,14.1328 17.22,9.2383 -42.76,128.6718 -19.32,-2.953 -4.75,14.262 18.28,6.078 22.12,7.332 120.41,-99.891 0.6,0.449 -36.03,108.391 -19.32,-2.949 -4.74,14.281 40.38,13.41 18.3,6.067" /><path
             id="path56"
             style="fill:#231f20;fill-opacity:1;fill-rule:nonzero;stroke:none"
             d="M 1240.99,2795.04 V 1019.22 c 0,-24.689 -12.38,-36.99 -37.09,-36.99 H 968.094 c -24.758,0 -37.09,12.301 -37.09,36.99 v 755.79 H 756.133 v -755.79 c 0,-24.689 -12.379,-36.99 -37.098,-36.99 H 483.234 c -24.761,0 -37.097,12.301 -37.097,36.99 v 1775.82 c 0,24.64 12.336,36.99 37.097,36.99 h 235.801 c 24.719,0 37.098,-12.35 37.098,-36.99 v -710.85 h 174.871 v 710.85 c 0,24.64 12.332,36.99 37.09,36.99 H 1203.9 c 24.71,0 37.09,-12.35 37.09,-36.99" /><path
             id="path58"
             style="fill:#231f20;fill-opacity:1;fill-rule:nonzero;stroke:none"
             d="m 2369.69,2820.14 c 3.52,-7.93 3.52,-16.31 0,-25.1 l -355.03,-779.57 349.73,-996.25 c 3.52,-8.83 2.65,-17.18 -2.65,-25.111 -5.3,-7.918 -13.25,-11.879 -23.84,-11.879 h -262.31 c -10.59,0 -20.32,3.051 -29.14,9.25 -8.87,6.149 -15.03,13.62 -18.55,22.46 l -193.42,597.22 -45.04,-110.99 v -480.95 c 0,-24.689 -12.37,-36.99 -37.09,-36.99 h -235.8 c -24.76,0 -37.1,12.301 -37.1,36.99 v 1775.82 c 0,24.64 12.34,36.99 37.1,36.99 h 235.8 c 24.72,0 37.09,-12.35 37.09,-36.99 v -568.17 l 243.76,573.45 c 8.81,21.14 25.58,31.71 50.34,31.71 h 264.95 c 10.6,0 17.64,-3.96 21.2,-11.89" /><path
             id="path60"
             style="fill:#231f20;fill-opacity:1;fill-rule:nonzero;stroke:none"
             d="m 3251.99,2795.04 v -235.19 c 0,-24.7 -12.38,-37 -37.1,-37 H 3026.78 V 1019.22 c 0,-24.689 -12.38,-36.99 -37.09,-36.99 h -235.81 c -8.86,0 -17.22,3.5 -25.17,10.571 -7.95,7.019 -11.93,15.849 -11.93,26.419 v 1503.63 h -185.47 c -24.76,0 -37.09,12.3 -37.09,37 v 235.19 c 0,24.64 12.33,36.99 37.09,36.99 h 683.58 c 24.72,0 37.1,-12.35 37.1,-36.99" /><path
             id="path62"
             style="fill:#231f20;fill-opacity:1;fill-rule:nonzero;stroke:none"
             d="m 3617.79,1907.13 c 0,-29.88 -24.23,-54.11 -54.11,-54.11 -29.88,0 -54.1,24.23 -54.1,54.11 0,29.88 24.22,54.1 54.1,54.1 29.88,0 54.11,-24.22 54.11,-54.1" /></g></g></g></g></svg>